# xmcd
#
# Track frame offsets:
#	150
#	14571
#	25298
#	41556
#	56006
#	73271
#	85103
#	96697
#	112350
#	125962
#	139165
#	163671
#	180062
#	191495
#	205517
#	221672
#	234783
#
# Disc length: 3360 seconds
#
# Revision: 0
# Processed by: cddbd v1.5.2PL0 Copyright (c) Steve Scherf et al.
# Submitted via: audiograbber 1.83.01
#
DISCID=fa0d1e11
DTITLE=Chartbusters  - Country 500 Vol.1 d.10
DYEAR=2007
DGENRE=Karaoke
TTITLE0=Don't the girls get prettier at closing time - Micky Gilley
TTITLE1=Sleeping single in a double bed - Barbara Mandrell
TTITLE2=It was almost like a song - Ronnie Milsap
TTITLE3=Love is a rose - Linda Ronstadt
TTITLE4=Luckenback Texas - Waylon Jennings
TTITLE5=Don't it make my brown eyes blue - Crystal Gayle
TTITLE6=Put another log on the fire - Tompall&Glaser Brothers
TTITLE7=Married, but not to each other - Barbara Mandrell
TTITLE8=I got the hoss - Mel Tillis
TTITLE9=Two doors down - Dolly Parton
TTITLE10=Teddy Bear - Red Sovine
TTITLE11=Lucille - Kenny Rogers
TTITLE12=Heaven's just a sin away - Kendalls
TTITLE13=Two more bottles of wine - Emmylou Harris
TTITLE14=Rose colored glasses - John Conlee
TTITLE15=Take this job and shove it - Johnny Paycheck
TTITLE16=The Gambler - Kenny Rogers
EXTD=
EXTT0=
EXTT1=
EXTT2=
EXTT3=
EXTT4=
EXTT5=
EXTT6=
EXTT7=
EXTT8=
EXTT9=
EXTT10=
EXTT11=
EXTT12=
EXTT13=
EXTT14=
EXTT15=
EXTT16=
PLAYORDER=
